<svg width="117" height="56" viewBox="0 0 117 56" fill="none" xmlns="http://www.w3.org/2000/svg">
<g clip-path="url(#clip0_547_270)">
<path d="M54.5918 31.0662L54.5918 24.9338C54.5918 11.4821 43.6102 0.577392 30.0637 0.577392L25.0976 0.577391C11.5511 0.577391 0.569435 11.4821 0.569434 24.9338L0.569434 31.0662C0.569433 44.5178 11.5511 55.4225 25.0976 55.4225L30.0637 55.4225C43.6102 55.4225 54.5918 44.5178 54.5918 31.0662Z" stroke="white" stroke-width="1.51093" stroke-miterlimit="10"/>
<path d="M66.9551 31.0662L66.9551 24.9338C66.9551 11.4821 55.9735 0.577392 42.4269 0.577392L37.4608 0.577391C23.9143 0.577391 12.9327 11.4821 12.9327 24.9338L12.9327 31.0662C12.9327 44.5178 23.9143 55.4225 37.4608 55.4225L42.4269 55.4225C55.9735 55.4225 66.9551 44.5178 66.9551 31.0662Z" stroke="white" stroke-width="1.51093" stroke-miterlimit="10"/>
<path d="M79.3301 31.0662L79.3301 24.9338C79.3301 11.4821 68.3485 0.577392 54.8019 0.577392L49.8358 0.577391C36.2893 0.577391 25.3077 11.4821 25.3077 24.9338L25.3077 31.0662C25.3077 44.5178 36.2893 55.4225 49.8358 55.4225L54.8019 55.4225C68.3485 55.4225 79.3301 44.5178 79.3301 31.0662Z" stroke="white" stroke-width="1.51093" stroke-miterlimit="10"/>
<path d="M91.6924 31.0662L91.6924 24.9338C91.6924 11.4821 80.7108 0.577392 67.1643 0.577392L62.1982 0.577391C48.6516 0.577391 37.67 11.4821 37.67 24.9338L37.67 31.0662C37.67 44.5178 48.6516 55.4225 62.1981 55.4225L67.1643 55.4225C80.7108 55.4225 91.6924 44.5178 91.6924 31.0662Z" stroke="white" stroke-width="1.51093" stroke-miterlimit="10"/>
<path d="M104.056 31.0662L104.056 24.9338C104.056 11.4821 93.074 0.577392 79.5275 0.577392L74.5614 0.577391C61.0149 0.577391 50.0333 11.4821 50.0333 24.9338L50.0333 31.0662C50.0333 44.5178 61.0149 55.4225 74.5614 55.4225L79.5275 55.4225C93.074 55.4225 104.056 44.5178 104.056 31.0662Z" stroke="white" stroke-width="1.51093" stroke-miterlimit="10"/>
<path d="M116.419 31.0662L116.419 24.9338C116.419 11.4821 105.437 0.577392 91.8908 0.577392L86.9247 0.577391C73.3782 0.577391 62.3966 11.4821 62.3966 24.9338L62.3966 31.0662C62.3966 44.5178 73.3782 55.4225 86.9247 55.4225L91.8908 55.4225C105.437 55.4225 116.419 44.5178 116.419 31.0662Z" stroke="white" stroke-width="1.51093" stroke-miterlimit="10"/>
</g>
<defs>
<clipPath id="clip0_547_270">
<rect width="56" height="117" fill="white" transform="translate(117) rotate(90)"/>
</clipPath>
</defs>
</svg>
