<svg width="120" height="34" viewBox="0 0 120 34" fill="none" xmlns="http://www.w3.org/2000/svg">
<rect x="0.5" y="0.5" width="119" height="33" rx="16.5" stroke="white"/>
<g clip-path="url(#clip0_547_192)">
<path d="M22.465 9.26373C22.465 9.96321 21.9147 10.5275 21.2325 10.5275C20.5503 10.5275 20 9.96321 20 9.26373C20 8.56425 20.5503 8 21.2325 8C21.9147 8 22.465 8.56425 22.465 9.26373Z" fill="white"/>
<path d="M22.465 19.4527C22.465 20.1522 21.9147 20.7164 21.2325 20.7164C20.5503 20.7164 20 20.1522 20 19.4527C20 18.7532 20.5503 18.189 21.2325 18.189C21.9147 18.189 22.465 18.7532 22.465 19.4527Z" fill="white"/>
<path d="M29.6505 9.26373C29.6505 9.96321 29.1002 10.5275 28.418 10.5275C27.7358 10.5275 27.1855 9.96321 27.1855 9.26373C27.1855 8.56425 27.7358 8 28.418 8C29.1002 8 29.6505 8.56425 29.6505 9.26373Z" fill="white"/>
<path d="M44.0265 9.26373C44.0265 9.96321 43.4762 10.5275 42.794 10.5275C42.1118 10.5275 41.5615 9.96321 41.5615 9.26373C41.5615 8.56425 42.1118 8 42.794 8C43.4762 8 44.0265 8.56425 44.0265 9.26373Z" fill="white"/>
<path d="M51.2169 9.26373C51.2169 9.96321 50.6666 10.5275 49.9844 10.5275C49.3023 10.5275 48.752 9.96321 48.752 9.26373C48.752 8.56425 49.3023 8 49.9844 8C50.6666 8 51.2169 8.56425 51.2169 9.26373Z" fill="white"/>
<path d="M58.4025 9.26373C58.4025 9.96321 57.8522 10.5275 57.17 10.5275C56.4878 10.5275 55.9375 9.96321 55.9375 9.26373C55.9375 8.56425 56.4878 8 57.17 8C57.8522 8 58.4025 8.56425 58.4025 9.26373Z" fill="white"/>
<path d="M33.2482 14.5469C33.2482 15.2464 32.6979 15.8107 32.0157 15.8107C31.3335 15.8107 30.7832 15.2464 30.7832 14.5469C30.7832 13.8475 31.3335 13.2832 32.0157 13.2832C32.6979 13.2832 33.2482 13.8475 33.2482 14.5469Z" fill="white"/>
<path d="M40.4337 14.5469C40.4337 15.2464 39.8834 15.8107 39.2012 15.8107C38.519 15.8107 37.9688 15.2464 37.9688 14.5469C37.9688 13.8475 38.519 13.2832 39.2012 13.2832C39.8834 13.2832 40.4337 13.8475 40.4337 14.5469Z" fill="white"/>
<path d="M47.6242 14.5469C47.6242 15.2464 47.0739 15.8107 46.3917 15.8107C45.7095 15.8107 45.1592 15.2464 45.1592 14.5469C45.1592 13.8475 45.7095 13.2832 46.3917 13.2832C47.0739 13.2832 47.6242 13.8475 47.6242 14.5469Z" fill="white"/>
<path d="M54.8097 14.5469C54.8097 15.2464 54.2594 15.8107 53.5772 15.8107C52.895 15.8107 52.3447 15.2464 52.3447 14.5469C52.3447 13.8475 52.895 13.2832 53.5772 13.2832C54.2594 13.2832 54.8097 13.8475 54.8097 14.5469Z" fill="white"/>
<path d="M62.0001 14.5469C62.0001 15.2464 61.4498 15.8107 60.7676 15.8107C60.0855 15.8107 59.5352 15.2464 59.5352 14.5469C59.5352 13.8475 60.0855 13.2832 60.7676 13.2832C61.4498 13.2832 62.0001 13.8475 62.0001 14.5469Z" fill="white"/>
<path d="M29.6505 19.4527C29.6505 20.1522 29.1002 20.7164 28.418 20.7164C27.7358 20.7164 27.1855 20.1522 27.1855 19.4527C27.1855 18.7532 27.7358 18.189 28.418 18.189C29.1002 18.189 29.6505 18.7532 29.6505 19.4527Z" fill="white"/>
<path d="M36.8409 19.4527C36.8409 20.1522 36.2906 20.7164 35.6085 20.7164C34.9263 20.7164 34.376 20.1522 34.376 19.4527C34.376 18.7532 34.9263 18.189 35.6085 18.189C36.2906 18.189 36.8409 18.7532 36.8409 19.4527Z" fill="white"/>
<path d="M44.0265 19.4527C44.0265 20.1522 43.4762 20.7164 42.794 20.7164C42.1118 20.7164 41.5615 20.1522 41.5615 19.4527C41.5615 18.7532 42.1118 18.189 42.794 18.189C43.4762 18.189 44.0265 18.7532 44.0265 19.4527Z" fill="white"/>
<path d="M51.2169 19.4527C51.2169 20.1522 50.6666 20.7164 49.9844 20.7164C49.3023 20.7164 48.752 20.1522 48.752 19.4527C48.752 18.7532 49.3023 18.189 49.9844 18.189C50.6666 18.189 51.2169 18.7532 51.2169 19.4527Z" fill="white"/>
<path d="M58.4025 19.4527C58.4025 20.1522 57.8522 20.7164 57.17 20.7164C56.4878 20.7164 55.9375 20.1522 55.9375 19.4527C55.9375 18.7532 56.4878 18.189 57.17 18.189C57.8522 18.189 58.4025 18.7532 58.4025 19.4527Z" fill="white"/>
<path d="M26.0577 24.7364C26.0577 25.4359 25.5074 26.0001 24.8253 26.0001C24.1431 26.0001 23.5928 25.4359 23.5928 24.7364C23.5928 24.0369 24.1431 23.4727 24.8253 23.4727C25.5074 23.4727 26.0577 24.0369 26.0577 24.7364Z" fill="white"/>
<path d="M40.4337 24.7364C40.4337 25.4359 39.8834 26.0001 39.2012 26.0001C38.519 26.0001 37.9688 25.4359 37.9688 24.7364C37.9688 24.0369 38.519 23.4727 39.2012 23.4727C39.8834 23.4727 40.4337 24.0369 40.4337 24.7364Z" fill="white"/>
<path d="M47.6242 24.7364C47.6242 25.4359 47.0739 26.0001 46.3917 26.0001C45.7095 26.0001 45.1592 25.4359 45.1592 24.7364C45.1592 24.0369 45.7095 23.4727 46.3917 23.4727C47.0739 23.4727 47.6242 24.0369 47.6242 24.7364Z" fill="white"/>
<path d="M54.8097 24.7364C54.8097 25.4359 54.2594 26.0001 53.5772 26.0001C52.895 26.0001 52.3447 25.4359 52.3447 24.7364C52.3447 24.0369 52.895 23.4727 53.5772 23.4727C54.2594 23.4727 54.8097 24.0369 54.8097 24.7364Z" fill="white"/>
</g>
<g clip-path="url(#clip1_547_192)">
<path d="M83 8V26C87.7437 25.7049 91.5 21.7905 91.5 17.0018C91.5 12.2132 87.7437 8.29514 83 8Z" fill="white"/>
<path d="M91.5 8V26C96.2437 25.7049 100 21.7905 100 17.0018C100 12.2132 96.2437 8.29514 91.5 8Z" fill="white"/>
</g>
<defs>
<clipPath id="clip0_547_192">
<rect width="42" height="18" fill="white" transform="translate(20 8)"/>
</clipPath>
<clipPath id="clip1_547_192">
<rect width="17" height="18" fill="white" transform="translate(83 8)"/>
</clipPath>
</defs>
</svg>
