<svg width="120" height="34" viewBox="0 0 120 34" fill="none" xmlns="http://www.w3.org/2000/svg">
<rect x="0.5" y="0.5" width="119" height="33" rx="16.5" stroke="white"/>
<g clip-path="url(#clip0_547_184)">
<path d="M38.9569 8.64258C36.7442 8.65393 34.6263 9.54234 33.0676 11.113C31.509 12.6836 30.6369 14.8083 30.6426 17.021C30.6483 19.2338 31.5313 21.3539 33.0979 22.9166C34.6646 24.4792 36.787 25.3568 38.9997 25.3568C41.2125 25.3568 43.3349 24.4792 44.9015 22.9166C46.4682 21.3539 47.3512 19.2338 47.3568 17.021C47.3625 14.8083 46.4904 12.6836 44.9318 11.113C43.3732 9.54234 41.2553 8.65393 39.0426 8.64258H38.9569Z" stroke="white" stroke-width="1.11429"/>
<path d="M38.9997 8.64258V25.3569M47.3569 16.9997H30.6426M32.5283 11.8569C34.4171 13.2044 36.6795 13.9287 38.9997 13.9287C41.32 13.9287 43.5823 13.2044 45.4711 11.8569M45.4711 22.1426C43.5823 20.7951 41.32 20.0708 38.9997 20.0708C36.6795 20.0708 34.4171 20.7951 32.5283 22.1426M38.3569 8.85686C37.1659 9.86263 36.2088 11.1161 35.5523 12.5299C34.8957 13.9437 34.5556 15.4838 34.5556 17.0426C34.5556 18.6014 34.8957 20.1414 35.5523 21.5552C36.2088 22.969 37.1659 24.2225 38.3569 25.2283M39.6426 25.2283C40.8335 24.2225 41.7906 22.969 42.4472 21.5552C43.1037 20.1414 43.4438 18.6014 43.4438 17.0426C43.4438 15.4838 43.1037 13.9437 42.4472 12.5299C41.7906 11.1161 40.8335 9.86263 39.6426 8.85686" stroke="white" stroke-width="0.771429"/>
</g>
<g clip-path="url(#clip1_547_184)">
<path d="M75.9618 7.99912L71.998 11.9629L86.0328 25.9976L89.9966 22.0339L75.9618 7.99912Z" fill="white"/>
<path d="M86.0328 8.00235L71.998 22.0371L75.9618 26.0009L89.9966 11.9661L86.0328 8.00235Z" fill="white"/>
</g>
<defs>
<clipPath id="clip0_547_184">
<rect width="18" height="18" fill="white" transform="translate(30 8)"/>
</clipPath>
<clipPath id="clip1_547_184">
<rect width="18" height="18" fill="white" transform="translate(72 8)"/>
</clipPath>
</defs>
</svg>
