<svg width="40" height="40" viewBox="0 0 40 40" fill="none" xmlns="http://www.w3.org/2000/svg">
<path d="M20 2.5C10.335 2.5 2.5 10.335 2.5 20C2.5 29.665 10.335 37.5 20 37.5C29.665 37.5 37.5 29.665 37.5 20C37.5 10.335 29.665 2.5 20 2.5ZM20 35C11.7157 35 5 28.2843 5 20C5 11.7157 11.7157 5 20 5C28.2843 5 35 11.7157 35 20C35 28.2843 28.2843 35 20 35Z" fill="white"/>
<path d="M27.461 28.0078L23.1255 22.2036L23.171 22.1988C25.6828 21.3882 27.5 19.0315 27.5 16.25C27.5 12.7982 24.7018 10 21.25 10H16.25C15.5596 10 15 10.5596 15 11.25V28.75C15 29.4404 15.5596 30 16.25 30C16.9404 30 17.5 29.4404 17.5 28.75V22.5H20.191L25.461 29.5078C25.8752 30.0601 26.6587 30.172 27.2109 29.7578C27.7632 29.3436 27.8752 28.5601 27.461 28.0078ZM17.5 20V12.5H21.25C23.3211 12.5 25 14.1789 25 16.25C25 18.3211 23.3211 20 21.25 20H17.5Z" fill="white"/>
</svg>
